<svg xmlns="http://www.w3.org/2000/svg" viewBox="0 0 512 512"><rect width="512" height="512" rx="112" fill="#092b35"/><circle cx="365" cy="142" r="62" fill="#f6b73c"/><path d="M113 361c73-92 157-117 286-92-80 12-141 45-196 105-32 35-62 43-90-13Z" fill="#17aaa5"/><path d="M255 334V172" stroke="#f5f1e8" stroke-width="24" stroke-linecap="round"/><path d="M252 184c-48-59-98-42-121-13 55-7 88 10 121 43M258 183c44-63 98-50 126-23-56-2-91 18-126 54M252 190c-58-19-88 17-93 49 40-25 69-24 96-9M260 191c57-23 91 10 98 42-42-22-70-19-98-4" fill="none" stroke="#f5f1e8" stroke-width="19" stroke-linecap="round"/></svg>